<svg width="800" height="800" viewBox="0 0 1500 1500" version="1.1" xmlns="http://www.w3.org/2000/svg" xml:space="preserve" style="fill-rule:evenodd;clip-rule:evenodd;stroke-linecap:round;stroke-linejoin:round;">
  <g transform="matrix(0.40958,0,0,0.450349,9,192.601356)">
    <g>
      <path d="M1539.7,123.48C1539.97,123.94 1548.46,117.42 1548.9,118.17C1555.82,130.15 1536.74,258.93 1538.89,262.65C1539.05,262.92 1654.91,194.84 1655.26,195.46C1667.59,216.82 1601.3,418.57 1607.82,429.85C1608.11,430.35 1632.46,415.46 1632.53,415.58C1636.48,422.41 1774.85,427.88 1776.95,431.52C1777.35,432.21 1857.96,384.66 1858,384.73C1859.12,386.67 1848.21,501.17 1855.44,513.7C1855.83,514.37 1863.1,508.8 1863.3,509.16C1863.65,509.77 1918.18,542.44 1918.85,543.59C1919.47,544.66 1927.77,538.14 1927.9,538.37C1928.34,539.13 1870.47,568.69 1873.26,573.51C1873.26,573.51 1960.37,522.54 1960.66,523.05C1997.06,586.09 2519.67,332.52 2542.41,371.91C2551.57,387.78 2598.17,334.88 2600.26,338.51C2601.18,340.11 2664.74,295.02 2669.76,303.71C2696.91,350.73 2917.59,97.69 2944.84,144.89" style="fill:none;fill-rule:nonzero;stroke:rgb(57,255,20);stroke-width:50px;"/>
      <path d="M3008.61,119.69C3008.94,120.27 3119.03,54.8 3119.52,55.65C3119.92,56.34 2986.08,214.97 2991.16,223.78C2992.12,225.45 3065.59,180.48 3065.73,180.72C3087.98,219.26 2716.72,524.79 2738.23,562.04C2739.15,563.64 2790.95,528.99 2792.08,530.95C2794.09,534.42 2645.27,654.33 2653.59,668.74C2654.02,669.48 2703.78,638.32 2704.41,639.4C2705.79,641.8 2450.99,920.99 2475.58,963.58C2475.94,964.2 2483.69,958.11 2484.03,958.7C2484.03,958.7 2495.95,1115.82 2498.07,1119.49C2498.53,1120.29 2504.99,1115.5 2504.99,1115.5C2509.74,1123.72 2514.15,1268.82 2523.59,1285.17C2523.97,1285.82 2674.74,1196.89 2675.18,1197.65C2675.85,1198.82 2642.57,1330.44 2652.19,1347.11C2652.42,1347.51 2659.17,1343 2659.2,1343.06L2674.39,1515.69C2674.84,1516.48 2760.6,1465.85 2760.63,1465.9C2761.17,1466.84 2871.08,1390.26 2876.96,1400.45C2877.04,1400.59 2883.09,1396.55 2883.25,1396.82C2884.72,1399.36 2800.82,1481.09 2801.9,1482.96C2802.43,1483.87 2808.71,1477.85 2809.22,1478.73C2809.27,1478.81 2818.3,1495.23 2819.07,1496.56C2819.12,1496.65 2826.15,1491.84 2826.43,1492.31C2835.97,1508.84 2940.75,1606.53 2942.15,1608.96C2942.41,1609.41 3017.43,1565.36 3017.49,1565.46C3022.3,1573.8 3104.83,1688.16 3104.95,1688.37C3105.34,1689.05 3112.7,1683.62 3112.82,1683.82C3112.98,1684.1 3114.29,1687.44 3114.49,1687.78C3114.85,1688.41 3147.76,1667.43 3148.25,1668.29C3148.25,1668.29 3115.36,1696.97 3116.28,1698.57C3116.72,1699.34 3122.96,1693.85 3123.33,1694.5" style="fill:none;fill-rule:nonzero;stroke:rgb(57,255,20);stroke-width:50px;"/>
      <path d="M2644.53,1663.3C2645.49,1664.96 2661.65,1650.31 2663,1652.64C2667.59,1660.59 2826.68,1593.94 2832.55,1604.11C2833.4,1605.58 2842.22,1597.34 2842.73,1598.23C2848.64,1608.46 2948.42,1693.14 2957.75,1709.29C2958.46,1710.53 3023.82,1670.1 3024.27,1670.88C3026.7,1675.09 3062.17,1665.28 3062.19,1665.32C3062.19,1665.32 3067.67,1660.38 3068.44,1661.71L3064.02,1710.76C3064.39,1711.39 3073.86,1703.77 3074.42,1704.75C3076.21,1707.85 3098.54,1716.91 3098.99,1717.68C3100.64,1720.54 3122.54,1700.24 3124.21,1703.12" style="fill:none;fill-rule:nonzero;stroke:rgb(57,255,20);stroke-width:50px;"/>
      <path d="M2486.41,1745.39C2492.8,1756.46 2704.96,1618.09 2705.45,1618.93C2715.9,1637.03 2518.3,1711.23 2527.15,1726.56C2527.58,1727.31 2561.7,1706.61 2561.7,1706.61C2575.73,1730.91 2238.78,2051.51 2240.62,2054.69C2240.62,2054.69 2328.27,2003.56 2328.5,2003.95C2338.31,2020.94 2239.05,2187.28 2245.13,2197.8C2245.67,2198.74 2256.16,2190.78 2256.45,2191.27" style="fill:none;fill-rule:nonzero;stroke:rgb(57,255,20);stroke-width:50px;"/>
      <path d="M1928.31,2065.05C1929.23,2066.64 1940.44,2057.54 1940.66,2057.92C1941.42,2059.23 2087.84,2122.12 2096.92,2137.86C2097.19,2138.33 2104.31,2133.04 2104.55,2133.45C2107.6,2138.74 2207.41,2215.87 2210.07,2220.47C2210.17,2220.64 2218.54,2214.02 2219.22,2215.19C2219.45,2215.59 2217.02,2222.11 2217.47,2222.88C2218.09,2223.95 2249.4,2199.9 2251.37,2203.31" style="fill:none;fill-rule:nonzero;stroke:rgb(57,255,20);stroke-width:50px;"/>
      <path d="M1822.92,2116.79C1823.14,2117.17 1997.89,2012.73 1999.21,2015.01C2009.3,2032.49 1739.44,2240.51 1761.07,2277.99C1761.56,2278.83 1821.4,2241.9 1821.95,2242.84C1823.93,2246.27 1819.41,2366.82 1824.03,2374.82C1824.21,2375.13 1944.21,2304.55 1944.6,2305.21C1947.93,2310.97 1753.79,2481.54 1757.72,2488.34C1758.3,2489.34 1865.99,2425.63 1866.08,2425.78" style="fill:none;fill-rule:nonzero;stroke:rgb(57,255,20);stroke-width:50px;"/>
      <path d="M541.63,1762.42C541.83,1762.77 553.53,1754.31 554.07,1755.24C557.9,1761.88 606.53,1805.74 606.55,1805.77C606.58,1805.81 615.94,1799.72 616.21,1800.19C617.03,1801.61 686.69,1865.5 692.06,1874.81C692.47,1875.52 835.09,1791.58 835.37,1792.07C835.37,1792.07 801.6,1863.75 805.21,1869.99C805.64,1870.74 876.56,1827.69 877.04,1828.52C883.23,1839.24 1003.03,1843.94 1005.82,1848.78C1005.89,1848.9 1015.67,1842.39 1015.97,1842.92C1018.37,1847.08 1066.52,1860.63 1068.08,1863.32C1068.66,1864.33 1077.76,1857.56 1077.83,1857.69C1082.19,1865.24 1021.57,1896.4 1024.84,1902.07C1025.16,1902.63 1067.24,1876.28 1067.81,1877.26C1068.26,1878.04 1165.9,1910.47 1171.85,1920.77C1171.85,1920.77 1259.25,1869.69 1259.52,1870.15C1267.66,1884.25 1331.54,1989.34 1333.85,1993.34C1333.99,1993.59 1341.93,1987.43 1342.47,1988.36C1349.69,2000.87 1448.53,2045.79 1449.51,2047.5C1449.57,2047.61 1456.7,2043.35 1456.7,2043.35C1458.85,2047.07 1433.13,2145.85 1433.13,2145.85C1433.53,2146.55 1509.86,2100.75 1510.21,2101.35C1511.94,2104.35 1551.84,2142.76 1553.27,2145.24L1560.33,2141.16C1568.53,2155.36 1666.3,2265.62 1666.3,2265.62C1666.41,2265.81 1673.26,2261.6 1673.26,2261.6C1674.69,2264.08 1723.38,2319.49 1723.66,2319.98C1724.01,2320.58 1744.98,2307.49 1745.06,2307.63C1745.48,2308.36 1721.68,2330.11 1723.26,2332.84C1723.31,2332.92 1730.1,2328.73 1730.17,2328.85C1734.32,2336.04 1653.99,2381.79 1654.48,2382.64C1654.48,2382.64 1784.87,2307.01 1785.02,2307.27C1785.47,2308.04 1721.75,2504.47 1727.71,2514.79C1730.07,2518.88 1897.61,2414.23 1898.68,2416.08" style="fill:none;fill-rule:nonzero;stroke:rgb(57,255,20);stroke-width:50px;"/>
      <path d="M407.76,942.39C408.68,943.99 587.71,834.17 589.58,837.42C590.57,839.13 479.78,933.77 481.16,936.17C481.35,936.49 488.02,931.26 488.43,931.97C488.47,932.03 574.54,985.91 574.54,985.91C574.93,986.58 582.54,981.28 582.54,981.29C585.66,986.7 537.32,1026.22 537.4,1026.36C537.48,1026.5 567.11,1009.21 567.11,1009.21C574.63,1022.23 728.37,1064.06 733.23,1072.48C733.23,1072.48 786.18,1041.13 786.52,1041.71C791.52,1050.38 836.48,1156.31 840.56,1163.39C840.98,1164.11 847.18,1158.35 847.71,1159.26C850.19,1163.56 865.64,1315.13 876.19,1333.42C876.28,1333.58 983,1271.6 983.07,1271.71C985.54,1275.99 893.75,1375.6 894.93,1377.63C895.31,1378.29 1007.84,1312.02 1008.02,1312.34C1028.54,1347.88 623.6,1632.47 633.49,1649.59C634.13,1650.7 732.14,1591.61 732.58,1592.38C732.59,1592.4 585.53,1684.39 590.55,1693.09C590.74,1693.41 736.67,1608.31 736.85,1608.62C749.84,1631.11 564.8,1713.18 574.98,1730.81C575.42,1731.57 579.12,1727.07 579.71,1728.08" style="fill:none;fill-rule:nonzero;stroke:rgb(57,255,20);stroke-width:50px;"/>
      <path d="M508.53,893.28C508.91,893.94 517.53,886.54 518.2,887.7C524.43,898.49 689.5,981.7 693.28,988.24C693.81,989.16 811.35,919.8 811.47,920C816.99,929.56 885.07,964.05 886.09,965.81C886.88,967.18 898.45,956.96 899.19,958.25C904.93,968.2 1072.99,944.53 1078.25,953.63C1086.76,968.36 1195.8,876.26 1199.91,883.39" style="fill:none;fill-rule:nonzero;stroke:rgb(57,255,20);stroke-width:50px;"/>
      <path d="M1427.58,179.09C1429.5,182.41 1629.39,62.47 1629.43,62.55C1643.51,86.93 1502.47,276.3 1509.62,288.68C1510.23,289.74 1569.28,253.34 1569.67,254.01C1584.98,280.53 1362.95,430.24 1370.42,443.17C1371.06,444.29 1567.83,328.54 1568.12,329.03C1572.04,335.81 1421.75,525.44 1436.58,551.13C1436.9,551.69 1446.21,544.08 1446.85,545.2C1449.13,549.15 1457.71,610.63 1460.51,615.48C1461.32,616.88 1508.37,585.81 1509.26,587.34C1519.2,604.56 1231.6,824.66 1245.16,848.16C1246.99,851.32 1276.64,826.61 1278.1,829.14" style="fill:none;fill-rule:nonzero;stroke:rgb(57,255,20);stroke-width:50px;"/>
    </g>
  </g>
</svg>
